<svg width="121" height="29" viewBox="0 0 121 29" fill="none" xmlns="http://www.w3.org/2000/svg">
<path d="M100.225 19.2887H94.8055C94.8055 18.9861 94.8055 18.7315 94.8055 18.4768C94.8055 15.0072 94.8014 11.5375 94.8068 8.06793C94.8095 6.80276 94.6458 5.58552 93.3898 4.95978C91.966 4.25053 90.4866 4.24916 89.0615 5.00086C88.378 5.36097 88.1181 6.04147 88.0261 6.77264C87.9611 7.28884 87.9489 7.81462 87.9476 8.33766C87.9408 11.6882 87.9435 15.0387 87.9435 18.3892C87.9435 18.6698 87.9435 18.9505 87.9435 19.2846H82.5013C82.5013 19.0108 82.5013 18.7383 82.5013 18.4645C82.5013 14.9948 82.5081 11.5252 82.4986 8.0556C82.4905 5.01318 79.7457 3.42351 77.097 4.92829C75.8627 5.62934 75.6394 6.8589 75.6272 8.1227C75.5961 11.5677 75.615 15.014 75.6137 18.4604C75.6137 18.7178 75.6137 18.9752 75.6137 19.2846H70.2716C70.2567 19.0697 70.2324 18.8629 70.231 18.6562C70.2297 15.2098 70.1674 11.7635 70.2621 8.31986C70.3 6.91641 70.5315 5.47598 70.9389 4.13414C71.5533 2.1118 73.0922 0.954799 75.098 0.472832C77.2757 -0.0502126 79.4764 -0.0543202 81.6703 0.378355C83.1821 0.676846 84.4665 1.34366 85.2136 2.91553C86.3722 0.769954 88.3252 0.275663 90.4163 0.164756C91.652 0.0990331 92.9147 0.101772 94.1342 0.282509C97.8412 0.834307 99.8132 2.99631 100.11 6.80824C100.238 8.46363 100.208 10.1314 100.221 11.7936C100.237 14.0268 100.225 16.2614 100.225 18.4946V19.2887Z" fill="#92C1E9"/>
<path d="M60.9816 1.89957C61.0033 1.49291 61.0249 1.05612 61.0506 0.570047H66.3994C66.4103 0.827461 66.4306 1.07803 66.4306 1.3286C66.4333 4.8434 66.4847 8.35957 66.4103 11.873C66.371 13.7078 67.1208 14.9592 68.634 15.8369C68.8735 15.9752 69.109 16.1217 69.4866 16.349C68.3227 17.495 67.2291 18.5932 66.1003 19.6516C65.969 19.7748 65.6171 19.7474 65.4046 19.6749C64.0945 19.234 63.051 18.4193 62.2173 17.1801C61.9859 17.3896 61.7883 17.5745 61.5866 17.7525C58.9271 20.0966 54.2171 20.736 51.0419 18.2016C49.1985 16.731 48.3486 14.7005 47.9872 12.4412C47.6231 10.167 47.7003 7.89951 48.377 5.67452C49.7494 1.15881 54.7233 -1.21816 59.0326 0.630293C59.7216 0.926046 60.313 1.45457 60.9802 1.8982L60.9816 1.89957ZM61.0154 9.79452C61.0154 9.01132 61.033 8.22676 61.0046 7.44356C60.9951 7.20258 60.9207 6.91093 60.7705 6.73704C59.953 5.79912 58.9975 5.04878 57.7875 4.67772C56.2432 4.20397 54.7395 4.79822 54.0696 6.27972C53.7339 7.02184 53.5011 7.84748 53.4023 8.65669C53.1966 10.3628 53.198 12.077 53.9085 13.6968C54.5027 15.051 55.5787 15.5987 56.989 15.2961C58.295 15.0154 59.3331 14.2609 60.3144 13.3901C60.8233 12.9383 61.1007 12.4371 61.029 11.7169C60.9654 11.0816 61.0154 10.4353 61.0154 9.79452Z" fill="#92C1E9"/>
<path d="M34.1293 11.9305C34.2146 13.2107 34.7708 14.1048 35.7954 14.7087C37.2003 15.5371 38.7215 15.548 40.2293 15.1783C41.6748 14.8223 43.0823 14.3075 44.6401 13.82C45.2884 14.977 46.0193 16.2805 46.7772 17.6333C45.2533 18.4672 43.7184 19.0135 42.1065 19.3695C39.6703 19.9076 37.2422 20.061 34.8087 19.3572C31.2086 18.3166 29.1216 15.9245 28.5342 12.1934C28.2337 10.2861 28.3555 8.39517 28.9091 6.55219C29.8741 3.33999 31.9692 1.24234 35.1958 0.44134C38.3372 -0.339119 41.3242 0.0168796 43.8985 2.18847C45.8718 3.85345 46.7393 6.10583 46.9545 8.62931C47.0439 9.68361 46.9694 10.753 46.9694 11.9305H34.1293ZM41.2741 8.51293C41.4474 6.45909 39.8138 4.59009 37.8161 4.52026C35.8022 4.45043 34.0237 6.32216 34.0576 8.51293H41.2741Z" fill="#92C1E9"/>
<path d="M110.324 12.6384C110.867 11.4129 111.355 10.3162 111.84 9.21534C113.032 6.50427 114.233 3.79594 115.405 1.07666C115.581 0.667262 115.792 0.502955 116.239 0.51117C117.782 0.535816 119.326 0.520755 121 0.520755C120.323 2.01732 119.699 3.40982 119.066 4.79685C117.067 9.17015 115.054 13.5394 113.074 17.9222C112.878 18.3577 112.795 18.8711 112.768 19.3545C112.695 20.6566 112.816 21.9847 112.613 23.2622C112.215 25.7611 110.933 27.6588 108.493 28.6008C108.019 28.7829 107.682 28.7186 107.314 28.3297C106.356 27.3206 105.349 26.3594 104.276 25.2942C104.581 25.1162 104.793 24.9916 105.004 24.8697C106.552 23.9701 107.38 22.694 107.367 20.8099C107.357 19.3394 107.156 17.9852 106.555 16.616C104.368 11.6252 102.279 6.59053 100.153 1.57095C100.026 1.26972 99.9039 0.967122 99.7401 0.570047C100.051 0.549508 100.273 0.523493 100.497 0.523493C101.906 0.519385 103.315 0.545401 104.724 0.509801C105.246 0.496109 105.511 0.650831 105.712 1.15881C107.114 4.70785 108.548 8.24319 109.974 11.7813C110.07 12.0209 110.168 12.2591 110.325 12.6398L110.324 12.6384Z" fill="#92C1E9"/>
<path d="M17.5145 17.6279C15.4897 18.7986 13.4122 19.4051 11.2345 19.7187C9.43846 19.9775 7.67628 19.8392 5.9547 19.275C3.07458 18.3316 1.20141 16.375 0.431304 13.4134C-0.146616 11.1911 -0.15203 8.92917 0.46514 6.7165C1.5506 2.82516 4.24936 0.750785 8.10668 0.219525C11.2967 -0.219997 14.3731 0.360555 17.2965 1.73389C17.3791 1.77223 17.4495 1.83521 17.5781 1.9201C17.1423 3.21813 16.7078 4.51205 16.2801 5.7868C14.8725 5.40615 13.538 4.95157 12.1684 4.70511C11.1912 4.52848 10.145 4.49425 9.16507 4.63939C7.43808 4.89406 6.28088 5.93467 5.83154 7.69002C5.43363 9.23998 5.42551 10.7941 5.84372 12.3372C6.44735 14.5594 8.18788 15.7014 10.4332 15.3289C11.2832 15.1879 12.1318 14.9894 12.9493 14.7224C13.7465 14.4622 14.5057 14.0788 15.3841 13.7064C16.0744 14.9757 16.7782 16.2723 17.5158 17.6292L17.5145 17.6279Z" fill="#92C1E9"/>
<path d="M28.993 4.57229C28.2824 4.57229 27.6071 4.53259 26.9371 4.57914C24.8474 4.72839 23.7619 5.84431 23.7308 7.96113C23.6889 10.7886 23.7159 13.6174 23.7132 16.4449C23.7132 17.3677 23.7132 18.2906 23.7132 19.2737H18.3265C18.3157 19.0286 18.2954 18.778 18.2954 18.5288C18.2927 15.1783 18.3509 11.8251 18.2805 8.47596C18.1709 3.27974 21.0767 0.6522 25.8286 0.188033C26.8478 0.0880793 27.8859 0.172971 28.993 0.172971V4.57229Z" fill="#92C1E9"/>
<path d="M73.482 24.0079C73.1761 24.3242 72.8756 24.6405 72.567 24.9513C72.1556 25.3662 71.7414 25.7783 71.3232 26.1863C71.2407 26.2671 71.2339 26.3191 71.3137 26.4068C71.6413 26.7682 71.9634 27.1366 72.2855 27.5035C72.4885 27.7349 72.7403 27.8568 73.0475 27.8349C73.1477 27.828 73.1883 27.8499 73.1856 27.9595C73.1788 28.2196 73.1788 28.4811 73.1856 28.7413C73.1883 28.8536 73.1395 28.8919 73.0407 28.9001C72.2706 28.97 71.5898 28.8303 71.108 28.1334C70.8265 27.7267 70.5044 27.3502 70.1999 26.9599C70.1566 26.9052 70.12 26.8435 70.0334 26.8367C69.9116 26.8285 69.848 26.849 69.8507 26.9996C69.8588 27.5391 69.8507 28.0786 69.8561 28.6181C69.8574 28.7523 69.8223 28.7974 69.6842 28.7933C69.3431 28.7837 69.0007 28.781 68.6596 28.7933C68.4945 28.8002 68.4634 28.744 68.4634 28.5879C68.4688 26.7395 68.4661 24.891 68.4661 23.0426C68.4661 22.6181 68.4715 22.1937 68.4634 21.7692C68.4607 21.6241 68.4932 21.5652 68.6502 21.5707C68.9912 21.5816 69.3337 21.5802 69.6747 21.5707C69.8182 21.5666 69.8561 21.6131 69.8561 21.7555C69.8507 22.9974 69.852 24.2407 69.8561 25.4825C69.8561 25.562 69.7979 25.6838 69.9184 25.7167C70.0334 25.7468 70.143 25.729 70.2418 25.6222C70.7169 25.1087 71.2028 24.6076 71.6819 24.0969C71.759 24.0147 71.8375 23.9819 71.9485 23.9832C72.41 23.9887 72.8716 23.9846 73.3331 23.986C73.3832 23.986 73.44 23.9668 73.4847 24.0051L73.482 24.0079Z" fill="#92C1E9"/>
<path d="M90.2782 24.3461C90.2958 24.3146 90.3052 24.305 90.3066 24.2941C90.3273 24.0905 90.4419 23.9887 90.6504 23.9887C90.9441 23.9887 91.2378 23.9956 91.5315 23.986C91.6668 23.9819 91.7033 24.0229 91.702 24.1585C91.6966 25.0608 91.7155 25.9645 91.6925 26.8668C91.6803 27.3707 91.8955 27.7007 92.3178 27.9143C92.4504 27.9814 92.4559 28.0225 92.3489 28.1224C92.127 28.3333 91.9091 28.551 91.702 28.7796C91.6032 28.8878 91.5125 28.8988 91.3866 28.8495C91.1227 28.7481 90.8967 28.5921 90.7275 28.3648C90.6463 28.2552 90.603 28.2361 90.4893 28.3415C89.6691 29.1014 88.3292 29.0891 87.5848 28.3168C87.1774 27.8937 87.011 27.3584 86.9636 26.7847C86.9149 26.2069 86.9433 25.6359 87.1639 25.0868C87.5415 24.1434 88.4578 23.7902 89.2847 23.8723C89.6651 23.9107 90.0048 24.038 90.2782 24.3475V24.3461ZM90.312 26.3698C90.312 26.1644 90.312 25.9577 90.312 25.7523C90.312 25.6866 90.3161 25.6208 90.2633 25.5661C90.0616 25.3552 89.8464 25.1635 89.5703 25.0622C89.1156 24.8951 88.7095 25.0389 88.5241 25.4853C88.271 26.0946 88.271 26.7285 88.5065 27.3447C88.6405 27.6966 88.9274 27.8184 89.2956 27.7431C89.5852 27.6843 89.8207 27.5199 90.0495 27.3392C90.243 27.1872 90.354 27.012 90.3147 26.7518C90.2958 26.6272 90.312 26.4985 90.312 26.3712V26.3698Z" fill="#92C1E9"/>
<path d="M99.2867 26.897C98.7954 26.897 98.3041 26.9038 97.8141 26.8928C97.6504 26.8901 97.6341 26.9517 97.6747 27.0845C97.7749 27.4173 98.005 27.6103 98.3244 27.7021C98.8143 27.8417 99.2853 27.7226 99.7509 27.5733C99.9039 27.5241 100.051 27.4529 100.196 27.3817C100.275 27.3419 100.319 27.3406 100.365 27.4282C100.513 27.7048 100.669 27.9786 100.824 28.2511C100.862 28.3168 100.858 28.3565 100.785 28.3921C99.8145 28.8604 98.8076 29.0699 97.7546 28.7591C96.8397 28.488 96.3308 27.8417 96.2171 26.8833C96.1386 26.2123 96.1968 25.5565 96.5527 24.9691C97.0698 24.1147 97.8737 23.8066 98.8211 23.8723C99.6467 23.9285 100.288 24.3255 100.667 25.0923C100.892 25.5469 100.951 26.0371 100.943 26.541C100.937 26.8983 100.943 26.8983 100.598 26.8983C100.161 26.8983 99.7239 26.8983 99.2867 26.8983V26.897ZM98.5531 26.0083C98.8279 26.0083 99.104 26.0083 99.3787 26.0083C99.4396 26.0083 99.4951 26.0124 99.4911 25.9166C99.4762 25.5346 99.173 25.1307 98.817 25.0348C98.2324 24.8773 97.7289 25.2662 97.6287 25.9029C97.6125 26.007 97.672 26.0083 97.7438 26.0083C98.0131 26.0083 98.2824 26.0083 98.5518 26.0083H98.5531Z" fill="#92C1E9"/>
<path d="M65.4479 28.9001C64.6629 28.907 63.9334 28.7002 63.2459 28.3237C63.1308 28.2607 63.0875 28.2087 63.1674 28.0772C63.3081 27.8445 63.4354 27.6035 63.5531 27.3597C63.6208 27.2173 63.6817 27.1982 63.8211 27.279C64.261 27.535 64.7265 27.7226 65.2395 27.7582C65.5156 27.7774 65.7903 27.7774 66.061 27.7103C66.2207 27.6706 66.3331 27.5802 66.3412 27.4008C66.3493 27.231 66.2383 27.1461 66.1003 27.1023C65.6726 26.9682 65.2408 26.8449 64.8118 26.7094C64.4856 26.6067 64.1716 26.4766 63.8793 26.2918C63.1566 25.8344 63.2147 24.7555 63.8603 24.2968C64.1933 24.0599 64.5709 23.9449 64.9634 23.8956C65.8039 23.7902 66.62 23.8997 67.4023 24.2393C67.5363 24.2982 67.5674 24.357 67.5119 24.4967C67.4199 24.7322 67.3441 24.9759 67.2683 25.2183C67.2412 25.3073 67.2101 25.3319 67.1167 25.295C66.5172 25.0567 65.8919 24.9855 65.253 24.9992C65.1326 25.0019 65.0135 25.0156 64.8998 25.0567C64.8159 25.0868 64.7523 25.1443 64.7414 25.2374C64.7306 25.3401 64.8037 25.3908 64.8822 25.425C65.1908 25.5592 65.5142 25.6455 65.8337 25.7454C66.2221 25.8673 66.6146 25.9741 66.9827 26.1548C67.4862 26.4027 67.7731 26.7847 67.7555 27.3721C67.7379 27.9622 67.4483 28.3634 66.934 28.6112C66.463 28.8385 65.9582 28.8905 65.4466 28.8974L65.4479 28.9001Z" fill="#92C1E9"/>
<path d="M76.511 27.1119C76.511 26.6642 76.5056 26.2151 76.511 25.7673C76.5177 25.2676 76.6463 24.8102 77.0077 24.4447C77.3041 24.1448 77.679 24.0038 78.0769 23.9312C78.7374 23.8107 79.3979 23.8189 80.0448 24.0284C80.7594 24.2598 81.1533 24.7664 81.2304 25.5127C81.2927 26.1096 81.248 26.7107 81.2548 27.3105C81.2602 27.7527 81.2534 28.195 81.2575 28.6372C81.2575 28.7509 81.2304 28.7961 81.1073 28.7933C80.7486 28.7851 80.3886 28.7851 80.0299 28.7933C79.8986 28.7961 79.8716 28.7468 79.8729 28.6263C79.877 27.7719 79.8756 26.9175 79.8743 26.0645C79.8743 25.9618 79.8743 25.8577 79.8648 25.7564C79.8215 25.3401 79.5941 25.1005 79.1867 25.0293C79.0027 24.9965 78.8186 24.991 78.6332 25.0211C78.1324 25.1019 77.8955 25.3648 77.8901 25.8796C77.882 26.697 77.8874 27.5145 77.8874 28.3333C77.8874 28.4483 77.8834 28.5633 77.8874 28.6783C77.8915 28.7646 77.8576 28.7947 77.7724 28.7947C77.3893 28.792 77.0063 28.7906 76.6233 28.7947C76.5015 28.7961 76.5083 28.7221 76.5083 28.6413C76.5083 28.132 76.5083 27.624 76.5083 27.1147H76.5096L76.511 27.1119Z" fill="#92C1E9"/>
<path d="M82.2022 26.4164C82.2022 25.6674 82.3863 24.9869 82.9601 24.4679C83.4189 24.0531 83.9766 23.8819 84.5748 23.86C85.2528 23.8354 85.9052 23.9695 86.5291 24.2489C86.6496 24.3023 86.6753 24.3557 86.6266 24.4803C86.5359 24.7171 86.4547 24.9581 86.3816 25.2018C86.3464 25.3182 86.2991 25.3319 86.1921 25.2922C85.736 25.1252 85.2759 24.9855 84.7792 24.9965C84.1349 25.0115 83.7329 25.3497 83.6314 25.9919C83.5935 26.2274 83.5895 26.4629 83.6192 26.6984C83.7235 27.5254 84.1945 27.8718 85.0065 27.7294C85.3462 27.6692 85.6684 27.5569 85.9702 27.3912C86.0839 27.3296 86.1326 27.3515 86.1881 27.4611C86.318 27.7199 86.4588 27.9745 86.5968 28.2292C86.632 28.2922 86.6631 28.3429 86.5725 28.3894C85.6657 28.8508 84.7196 29.0699 83.7248 28.7605C82.7733 28.4647 82.3132 27.7541 82.213 26.7778C82.2076 26.7299 82.2049 26.6806 82.2035 26.6327C82.2022 26.5601 82.2035 26.4876 82.2035 26.415L82.2022 26.4164Z" fill="#92C1E9"/>
<path d="M93.0257 27.1653C93.0257 26.7409 93.0257 26.3178 93.0257 25.8933C93.0284 24.8623 93.5048 24.2297 94.4847 23.9668C94.8569 23.8669 95.2385 23.8491 95.6229 23.8545C95.7353 23.8559 95.765 23.9052 95.7623 24.0106C95.7569 24.3009 95.7569 24.5925 95.7623 24.8828C95.7637 24.9965 95.7298 25.0252 95.6148 25.0102C95.4186 24.9841 95.2209 24.9937 95.026 25.0389C94.6931 25.1142 94.4793 25.3388 94.4251 25.6797C94.4062 25.7988 94.3994 25.9207 94.3994 26.0412C94.3967 26.9011 94.3953 27.7609 94.4008 28.6208C94.4008 28.7577 94.3629 28.7961 94.2289 28.792C93.8756 28.7824 93.5224 28.7837 93.1691 28.792C93.0473 28.7947 93.0203 28.7523 93.0216 28.6372C93.027 28.1471 93.0243 27.6555 93.0243 27.1653H93.0257Z" fill="#92C1E9"/>
<path d="M75.3213 25.5852C75.3213 26.0097 75.3335 26.4342 75.3186 26.8572C75.301 27.3447 75.5216 27.6815 75.9276 27.9033C76.0792 27.9855 76.0657 28.0348 75.9547 28.1388C75.7354 28.3456 75.5243 28.5606 75.3199 28.7824C75.2279 28.8823 75.1426 28.9015 75.0208 28.8536C74.4091 28.6112 74.0991 28.1293 73.9746 27.5035C73.9489 27.3734 73.9435 27.2393 73.9421 27.1064C73.9394 26.1316 73.9435 25.1553 73.9381 24.1804C73.9381 24.0353 73.9651 23.9791 74.1221 23.9846C74.4686 23.9969 74.8164 23.9942 75.1643 23.9846C75.2929 23.9819 75.3253 24.0243 75.324 24.1489C75.3172 24.6268 75.3213 25.106 75.3213 25.5852Z" fill="#92C1E9"/>
<path d="M74.6175 23.4835C74.4253 23.4835 74.2345 23.4807 74.0423 23.4848C73.9557 23.4876 73.911 23.4684 73.9124 23.3671C73.9164 22.9727 73.9164 22.5798 73.9124 22.1854C73.9124 22.0937 73.9394 22.0567 74.0355 22.0567C74.4253 22.0608 74.8137 22.0608 75.2035 22.0567C75.3023 22.0567 75.324 22.0978 75.324 22.1868C75.3213 22.5743 75.3199 22.9618 75.324 23.3493C75.324 23.4492 75.2969 23.4889 75.1927 23.4848C75.0019 23.4766 74.8097 23.4821 74.6175 23.4821V23.4835Z" fill="#92C1E9"/>
</svg>
